<?xml version="1.0" encoding="UTF-8"?><svg width="157" height="204" viewBox="0 0 157 204" fill="none" xmlns="http://www.w3.org/2000/svg">
<path fill-rule="evenodd" clip-rule="evenodd" d="M46.934 84.8186C59.2564 87.6979 55.2892 113.878 61.1692 109.165C67.0492 104.452 65.194 45.4743 77.4188 53.194C89.6429 60.9135 82.0052 85.8847 85.6037 86.7941C89.2021 87.7035 94.5046 45.7618 109.743 29.6641C124.982 13.5656 136.757 31.4135 127.952 50.6766C119.148 69.9392 98.7534 82.0031 101.941 84.1611C105.129 86.3199 110.321 81.2653 116.397 80.9592C122.474 80.6522 119.656 94.5037 98.5078 106.003C77.3591 117.503 66.1497 144.825 77.4438 134.327C88.7373 123.829 122.261 111.22 109.629 136.131C99.2131 156.67 60.9694 178.162 47.8681 185.072C45.9758 184.24 43.5873 183.304 40.6355 182.334C40.1512 176.13 38.9822 162.542 36.4726 139.143C32.823 105.122 34.6115 81.9392 46.934 84.8186Z" fill="#6BB6C2"/>
<path fill-rule="evenodd" clip-rule="evenodd" d="M46.006 94.8573C46.2085 94.8041 46.4151 94.9254 46.4678 95.1267C53.3031 121.075 51.647 151.605 50.9434 160.693C61.9036 129.481 67.5208 121.503 76.0051 109.454C78.8787 105.373 82.1357 100.747 86.03 94.5834C103.028 67.6759 120.794 32.3857 120.971 32.0326C121.065 31.8456 121.294 31.7709 121.478 31.8649C121.666 31.9582 121.741 32.186 121.647 32.3722C121.47 32.7253 103.687 68.0479 86.669 94.9872C86.5385 95.1938 86.4112 95.3942 86.2819 95.5976C87.2569 95.8562 89.7709 96.3581 93.4758 95.9296C97.9331 95.4139 105.08 93.4104 113.808 86.7934C113.975 86.6669 114.212 86.6996 114.338 86.8656C114.464 87.0315 114.432 87.2692 114.266 87.3952C105.373 94.1377 98.0661 96.1697 93.5029 96.6869C89.3665 97.1562 86.7083 96.5202 85.8564 96.2655C82.3099 101.814 79.3004 106.088 76.6233 109.889C66.7118 123.966 60.7291 132.463 45.4475 179.367C45.3823 179.566 45.1694 179.674 44.9705 179.61C44.9665 179.609 44.9616 179.607 44.9576 179.605C44.767 179.536 44.6646 179.327 44.7281 179.133C46.6121 173.352 48.3546 168.152 49.9812 163.452C49.9633 163.401 49.9521 163.347 49.9583 163.289C49.9974 162.92 53.7942 125.905 45.7366 95.3186C45.683 95.117 45.8042 94.9107 46.006 94.8573" fill="#ABD5DC"/>
<path fill-rule="evenodd" clip-rule="evenodd" d="M73.7328 100.391C73.7392 100.393 73.7449 100.395 73.7516 100.397C73.924 100.449 74.1063 100.351 74.1586 100.178C79.3796 82.7488 77.0157 60.2038 76.9911 59.978C76.9715 59.7988 76.8108 59.6696 76.6315 59.6892C76.4517 59.7076 76.3223 59.8689 76.3419 60.048C76.366 60.2727 78.7156 82.689 73.532 99.9909C73.4821 100.157 73.5712 100.332 73.7328 100.391" fill="#ABD5DC"/>
</svg>
